<svg xmlns="http://www.w3.org/2000/svg" viewBox="0 0 121.18 68"><title>资源 2</title><path d="M121.34,50.06c1.15,9.11-8.69,11.71-29.84,15.08C80.27,68,79,68.25,69.61,68.25H55.52c-12.62,0-12.86,0-25.42-3.11C9.07,61.77-.78,59.18.34,50c0-3.05.5-24.7,3.54-33.88a9.47,9.47,0,0,1,1.73-3.39A10.3,10.3,0,0,1,7.79,11c3.4-2.09,8.52-3.14,14.26-4.33,1.93-.4,3.9-.8,5.88-1.27h0c.88-.2,1.76-.42,2.64-.65a11.86,11.86,0,0,0,3.7-1.51h0L34.74,3C37,1.38,38.67.25,60.84.25S84.66,1.38,86.94,3l.45.3h0a11.62,11.62,0,0,0,3.68,1.52c.89.23,1.77.45,2.66.65h0c2,.47,4,.88,5.91,1.27,5.69,1.16,10.77,2.2,14.15,4.28a10.05,10.05,0,0,1,2.24,1.8,9.3,9.3,0,0,1,1.53,3.4C120.23,25.21,121.22,47.18,121.34,50.06ZM91.1,63.19c23.29-3.73,29.08-6.39,28.25-13-.53-12.57-2.27-33.39-4.75-36.11C112,11.24,105.82,10,99.29,8.65c-2.84-.58-5.78-1.18-8.7-1.95a14.38,14.38,0,0,1-3.75-1.45c-.4-.22-.72-.44-1-.65-1.91-1.31-3.42-2.35-25-2.35s-23.06,1-25,2.35c-.31.21-.63.43-1,.65A14.38,14.38,0,0,1,31.09,6.7c-2.9.77-5.82,1.37-8.64,2C15.92,10,9.74,11.27,7.07,14.13c-3.48,3.71-4.59,27.23-4.73,36v.11c-.83,6.57,5,9.23,28.17,12.94,12.41,3.11,12.41,3.11,25,3.07H66.16C78.77,66.28,78.77,66.28,91.1,63.19Z" transform="translate(-0.25 -0.25)" style="fill:#333"/><path d="M119.35,50.23c.83,6.57-5,9.23-28.25,13-12.33,3.09-12.33,3.09-24.94,3H55.52c-12.61,0-12.61,0-25-3.07C7.29,59.46,1.5,56.8,2.33,50.23v-.11c.14-8.76,1.25-32.28,4.73-36C9.74,11.27,15.92,10,22.45,8.65c2.82-.58,5.74-1.18,8.64-1.95a14.38,14.38,0,0,0,3.75-1.45c.4-.22.72-.44,1-.65,1.91-1.31,3.42-2.35,25-2.35s23.06,1,25,2.35c.31.21.63.43,1,.65A14.38,14.38,0,0,0,90.59,6.7c2.92.77,5.86,1.37,8.7,2C105.82,10,112,11.24,114.6,14.12,117.08,16.84,118.82,37.66,119.35,50.23Zm-5.51-24a5,5,0,1,0-5,5A5,5,0,0,0,113.84,26.25Zm-6.45,23.18a.62.62,0,0,0-.13-.37,1.26,1.26,0,0,0-1.36-.4L94.56,52.41a.62.62,0,0,0-.39,1,1.3,1.3,0,0,0,1.37.39L106.88,50A.66.66,0,0,0,107.39,49.43Zm-.14-2.93a.62.62,0,0,0-.13-.37,1.28,1.28,0,0,0-1.36-.39L94.41,49.48a.61.61,0,0,0-.38,1,1.29,1.29,0,0,0,1.36.4l11.34-3.75A.67.67,0,0,0,107.25,46.5Zm-.15-2.92a.62.62,0,0,0-.13-.37,1.27,1.27,0,0,0-1.36-.4L94.26,46.56a.61.61,0,0,0-.38,1,1.28,1.28,0,0,0,1.36.39l11.35-3.74A.66.66,0,0,0,107.1,43.58ZM107,40.65a.62.62,0,0,0-.13-.37,1.28,1.28,0,0,0-1.36-.39L94.12,43.63a.61.61,0,0,0-.39,1,1.27,1.27,0,0,0,1.36.4l11.35-3.75A.65.65,0,0,0,107,40.65Zm-3.11-7.4a5,5,0,1,0-5,5A5,5,0,0,0,103.84,33.25ZM86,54.76a6.52,6.52,0,0,0,4.85-6.7L88.62,14.32a6.53,6.53,0,0,0-6.51-6.07H39.58a6.53,6.53,0,0,0-6.51,6.07L30.85,48.21a6.44,6.44,0,0,0,4.67,6.65c5.23,1.52,14.11,2.39,24.38,2.39S80.19,56.3,86,54.76Zm-57.14-7a1.5,1.5,0,0,0-1.5-1.5,1.12,1.12,0,0,0-.32,0l-11.76-4a1.22,1.22,0,0,0-.41-.07,1.31,1.31,0,0,0-.43,2.54l11.84,4a1.45,1.45,0,0,0,1.08.47A1.5,1.5,0,0,0,28.84,47.75Zm0,5a1.5,1.5,0,0,0-1.5-1.5,1.12,1.12,0,0,0-.32,0l-11.76-4a1.22,1.22,0,0,0-.41-.07,1.31,1.31,0,0,0-.43,2.54l11.84,4a1.45,1.45,0,0,0,1.08.47A1.5,1.5,0,0,0,28.84,52.75Zm-1.5-20.61V28.36a1.61,1.61,0,0,0-1.61-1.61H20.84V21.86a1.61,1.61,0,0,0-1.61-1.61H15.45a1.61,1.61,0,0,0-1.61,1.61v4.89H9a1.61,1.61,0,0,0-1.61,1.61v3.78A1.61,1.61,0,0,0,9,33.75h4.89v4.89a1.61,1.61,0,0,0,1.61,1.61h3.78a1.61,1.61,0,0,0,1.61-1.61V33.75h4.89A1.61,1.61,0,0,0,27.34,32.14Z" transform="translate(-0.25 -0.25)" style="fill:#f2f2f2"/><path d="M117.84,16.15l-.23,0a9.3,9.3,0,0,0-1.53-3.4,10.05,10.05,0,0,0-2.24-1.8,10.51,10.51,0,0,0-8.1-4.72c-4.4-.45-8.63-.69-12-.83h0c-.89-.2-1.77-.42-2.66-.65a11.62,11.62,0,0,1-3.68-1.52c2.15,0,10,.15,18.53,1C116.63,5.32,117.82,16,117.84,16.15Z" transform="translate(-0.25 -0.25)" style="fill:#333"/><path d="M108.84,21.25a5,5,0,1,1-5,5A5,5,0,0,1,108.84,21.25Zm3,5a3,3,0,1,0-3,3A3,3,0,0,0,111.84,26.25Z" transform="translate(-0.25 -0.25)" style="fill:#333"/><path d="M105.74,6.25a10.51,10.51,0,0,1,8.1,4.72c-3.38-2.08-8.46-3.12-14.15-4.28-1.94-.39-3.92-.8-5.91-1.27C97.11,5.56,101.34,5.8,105.74,6.25Z" transform="translate(-0.25 -0.25)" style="fill:#ccc"/><circle cx="108.59" cy="26" r="3" style="fill:#ccc"/><path d="M107.26,49.06a.62.62,0,0,1,.13.37.66.66,0,0,1-.51.6L95.54,53.77a1.3,1.3,0,0,1-1.37-.39.62.62,0,0,1,.39-1l11.34-3.75A1.26,1.26,0,0,1,107.26,49.06Z" transform="translate(-0.25 -0.25)" style="fill:#ccc"/><path d="M107.12,46.13a.62.62,0,0,1,.13.37.67.67,0,0,1-.52.6L95.39,50.85a1.29,1.29,0,0,1-1.36-.4.61.61,0,0,1,.38-1l11.35-3.74A1.28,1.28,0,0,1,107.12,46.13Z" transform="translate(-0.25 -0.25)" style="fill:#ccc"/><path d="M107,43.21a.62.62,0,0,1,.13.37.66.66,0,0,1-.51.6L95.24,47.92a1.28,1.28,0,0,1-1.36-.39.61.61,0,0,1,.38-1l11.35-3.75A1.27,1.27,0,0,1,107,43.21Z" transform="translate(-0.25 -0.25)" style="fill:#ccc"/><path d="M106.82,40.28a.62.62,0,0,1,.13.37.65.65,0,0,1-.51.6L95.09,45a1.27,1.27,0,0,1-1.36-.4.61.61,0,0,1,.39-1l11.34-3.74A1.28,1.28,0,0,1,106.82,40.28Z" transform="translate(-0.25 -0.25)" style="fill:#ccc"/><path d="M98.84,28.25a5,5,0,1,1-5,5A5,5,0,0,1,98.84,28.25Zm3,5a3,3,0,1,0-3,3A3,3,0,0,0,101.84,33.25Z" transform="translate(-0.25 -0.25)" style="fill:#333"/><circle cx="98.59" cy="33" r="3" style="fill:#ccc"/><path d="M90.83,48.06A6.52,6.52,0,0,1,86,54.76C80.19,56.3,70.2,57.25,59.9,57.25s-19.15-.87-24.38-2.39a6.44,6.44,0,0,1-4.67-6.65l2.22-33.89a6.53,6.53,0,0,1,6.51-6.07H82.11a6.53,6.53,0,0,1,6.51,6.07Zm-5.36,4.77a4.51,4.51,0,0,0,3.36-4.64L86.62,14.45a4.52,4.52,0,0,0-4.51-4.2H39.58a4.52,4.52,0,0,0-4.51,4.2L32.85,48.34a4.45,4.45,0,0,0,3.23,4.6c5.05,1.47,13.73,2.31,23.82,2.31S79.84,54.32,85.47,52.83Z" transform="translate(-0.25 -0.25)" style="fill:#333"/><path d="M88.83,48.19a4.51,4.51,0,0,1-3.36,4.64C79.84,54.32,70,55.25,59.9,55.25s-18.77-.84-23.82-2.31a4.45,4.45,0,0,1-3.23-4.6l2.22-33.89a4.52,4.52,0,0,1,4.51-4.2H82.11a4.52,4.52,0,0,1,4.51,4.2Zm-4.49-1V15.33a3.08,3.08,0,0,0-3.08-3.08H40.42a3.08,3.08,0,0,0-3.08,3.08V47.17a3.08,3.08,0,0,0,3.08,3.08H81.26A3.08,3.08,0,0,0,84.34,47.17Z" transform="translate(-0.25 -0.25)" style="fill:#f2f2f2"/><path d="M84.34,15.33V47.17a3.08,3.08,0,0,1-3.08,3.08H40.42a3.08,3.08,0,0,1-3.08-3.08V15.33a3.08,3.08,0,0,1,3.08-3.08H81.26A3.08,3.08,0,0,1,84.34,15.33Zm-2,31.84V15.33a1.08,1.08,0,0,0-1.08-1.08H40.42a1.08,1.08,0,0,0-1.08,1.08V47.17a1.08,1.08,0,0,0,1.08,1.08H81.26A1.09,1.09,0,0,0,82.34,47.17Z" transform="translate(-0.25 -0.25)" style="fill:#333"/><rect x="39.09" y="14" width="43" height="34" rx="1.08" style="fill:#b8e08d"/><path d="M34.29,3.26a11.86,11.86,0,0,1-3.7,1.51c-.88.23-1.76.45-2.64.65h0c-3.33.14-7.57.38-12,.83A10.47,10.47,0,0,0,7.79,11a10.3,10.3,0,0,0-2.18,1.74,9.47,9.47,0,0,0-1.73,3.39h0c0-.11,1.21-10.83,11.9-11.9C24.27,3.4,32.17,3.27,34.29,3.26Z" transform="translate(-0.25 -0.25)" style="fill:#333"/><path d="M27.34,46.25a1.5,1.5,0,1,1,0,3,1.45,1.45,0,0,1-1.08-.47A1.49,1.49,0,0,1,27,46.29,1.12,1.12,0,0,1,27.34,46.25Z" transform="translate(-0.25 -0.25)" style="fill:#999"/><path d="M27.34,51.25a1.5,1.5,0,1,1,0,3,1.45,1.45,0,0,1-1.08-.47A1.49,1.49,0,0,1,27,51.29,1.12,1.12,0,0,1,27.34,51.25Z" transform="translate(-0.25 -0.25)" style="fill:#999"/><path d="M27.34,28.36v3.78a1.61,1.61,0,0,1-1.61,1.61H20.84v4.89a1.61,1.61,0,0,1-1.61,1.61H15.45a1.61,1.61,0,0,1-1.61-1.61V33.75H9a1.61,1.61,0,0,1-1.61-1.61V28.36A1.61,1.61,0,0,1,9,26.75h4.89V21.86a1.61,1.61,0,0,1,1.61-1.61h3.78a1.61,1.61,0,0,1,1.61,1.61v4.89h4.89A1.61,1.61,0,0,1,27.34,28.36Zm-2,3.39v-3h-6.5v-6.5h-3v6.5H9.34v3h6.5v6.5h3v-6.5Z" transform="translate(-0.25 -0.25)" style="fill:#333"/><path d="M15.26,42.32l11.76,4a1.49,1.49,0,0,0-.76,2.49l-11.84-4a1.31,1.31,0,0,1,.43-2.54A1.22,1.22,0,0,1,15.26,42.32Z" transform="translate(-0.25 -0.25)" style="fill:#ccc"/><path d="M15.26,47.32l11.76,4a1.49,1.49,0,0,0-.76,2.49l-11.84-4a1.31,1.31,0,0,1,.43-2.54A1.22,1.22,0,0,1,15.26,47.32Z" transform="translate(-0.25 -0.25)" style="fill:#ccc"/><polygon points="25.09 28.5 25.09 31.5 18.59 31.5 18.59 38 15.59 38 15.59 31.5 9.09 31.5 9.09 28.5 15.59 28.5 15.59 22 18.59 22 18.59 28.5 25.09 28.5" style="fill:#ccc"/><path d="M27.93,5.42c-2,.47-3.95.87-5.88,1.27C16.31,7.88,11.19,8.93,7.79,11a10.47,10.47,0,0,1,8.15-4.77C20.36,5.8,24.6,5.56,27.93,5.42Z" transform="translate(-0.25 -0.25)" style="fill:#ccc"/></svg>